<?xml version="1.0" encoding="utf-8"?>
<!-- Generator: Adobe Illustrator 16.0.0, SVG Export Plug-In . SVG Version: 6.00 Build 0)  -->
<!DOCTYPE svg PUBLIC "-//W3C//DTD SVG 1.1//EN" "http://www.w3.org/Graphics/SVG/1.1/DTD/svg11.dtd">
<svg version="1.1" xmlns="http://www.w3.org/2000/svg" xmlns:xlink="http://www.w3.org/1999/xlink" x="0px" y="0px" width="219px"
	 height="244px" viewBox="0 0 219 244" enable-background="new 0 0 219 244" xml:space="preserve">
<g id="Layer_1" display="none">
	
		<image display="inline" overflow="visible" opacity="0.3" width="289" height="315" xlink:href="tmp865235485193142272.jpg"  transform="matrix(1 0 0 1 -24.5 -34.5)">
	</image>
</g>
<g id="Layer_2">
	<circle fill="#E1EFE6" stroke="#E1EFE6" stroke-miterlimit="10" cx="3.5" cy="240.5" r="3"/>
	<circle fill="#E1EFE6" stroke="#E1EFE6" stroke-miterlimit="10" cx="55.5" cy="203.5" r="3"/>
	<circle fill="#E1EFE6" stroke="#E1EFE6" stroke-miterlimit="10" cx="80.5" cy="237.5" r="3"/>
	<circle fill="#E1EFE6" stroke="#E1EFE6" stroke-miterlimit="10" cx="145.5" cy="73.5" r="3"/>
	<circle fill="#E1EFE6" stroke="#E1EFE6" stroke-miterlimit="10" cx="107.5" cy="76.5" r="3"/>
	<circle fill="#E1EFE6" stroke="#E1EFE6" stroke-miterlimit="10" cx="83.5" cy="50.5" r="3"/>
	<circle fill="#E1EFE6" stroke="#E1EFE6" stroke-miterlimit="10" cx="122.5" cy="3.5" r="3"/>
	<circle fill="#E1EFE6" stroke="#E1EFE6" stroke-miterlimit="10" cx="215.5" cy="99.5" r="3"/>
	<line fill="none" stroke="#E1EFE6" stroke-miterlimit="10" x1="3.5" y1="240.5" x2="55.5" y2="203.5"/>
	<line fill="none" stroke="#E1EFE6" stroke-miterlimit="10" x1="55.5" y1="203.5" x2="80.5" y2="237.5"/>
	<line fill="none" stroke="#E1EFE6" stroke-miterlimit="10" x1="145.5" y1="73.5" x2="55.5" y2="203.5"/>
	<line fill="none" stroke="#E1EFE6" stroke-miterlimit="10" x1="107.5" y1="76.5" x2="145.5" y2="73.5"/>
	<line fill="none" stroke="#E1EFE6" stroke-miterlimit="10" x1="107.5" y1="76.5" x2="83.5" y2="50.5"/>
	<line fill="none" stroke="#E1EFE6" stroke-miterlimit="10" x1="83.5" y1="50.5" x2="122.5" y2="3.5"/>
	<line fill="none" stroke="#E1EFE6" stroke-miterlimit="10" x1="215.5" y1="99.5" x2="145.5" y2="73.5"/>
</g>
</svg>
