<?xml version="1.0" encoding="utf-8"?>
<!-- Generator: Adobe Illustrator 16.0.0, SVG Export Plug-In . SVG Version: 6.00 Build 0)  -->
<!DOCTYPE svg PUBLIC "-//W3C//DTD SVG 1.1//EN" "http://www.w3.org/Graphics/SVG/1.1/DTD/svg11.dtd">
<svg version="1.1" id="Layer_2_1_" xmlns="http://www.w3.org/2000/svg" xmlns:xlink="http://www.w3.org/1999/xlink" x="0px" y="0px"
	 width="264.588px" height="235.941px" viewBox="3.078 2.363 264.588 235.941" enable-background="new 3.078 2.363 264.588 235.941"
	 xml:space="preserve">
<circle fill="#E1EFE6" stroke="#E1EFE6" stroke-miterlimit="10" cx="59.5" cy="149.5" r="3.167"/>
<circle fill="#E1EFE6" stroke="#E1EFE6" stroke-miterlimit="10" cx="189.5" cy="56.834" r="3"/>
<circle fill="#E1EFE6" stroke="#E1EFE6" stroke-miterlimit="10" cx="199.5" cy="100.834" r="3"/>
<circle fill="#E1EFE6" stroke="#E1EFE6" stroke-miterlimit="10" cx="243.5" cy="121.834" r="3"/>
<circle fill="#E1EFE6" stroke="#E1EFE6" stroke-miterlimit="10" cx="233.5" cy="2.834" r="3"/>
<circle fill="#E1EFE6" stroke="#E1EFE6" stroke-miterlimit="10" cx="267.5" cy="14.834" r="3"/>
<circle fill="#E1EFE6" stroke="#E1EFE6" stroke-miterlimit="10" cx="261.5" cy="174.834" r="3"/>
<circle fill="#E1EFE6" stroke="#E1EFE6" stroke-miterlimit="10" cx="77.5" cy="210.834" r="3"/>
<circle fill="#E1EFE6" stroke="#E1EFE6" stroke-miterlimit="10" cx="3.5" cy="237.834" r="3"/>
<line fill="none" stroke="#E1EFE6" stroke-miterlimit="10" x1="3.5" y1="237.834" x2="59.5" y2="149.5"/>
<line fill="none" stroke="#E1EFE6" stroke-miterlimit="10" x1="59.5" y1="149.5" x2="199.5" y2="100.834"/>
<line fill="none" stroke="#E1EFE6" stroke-miterlimit="10" x1="199.5" y1="100.834" x2="189.5" y2="56.834"/>
<line fill="none" stroke="#E1EFE6" stroke-miterlimit="10" x1="189.5" y1="56.834" x2="233.5" y2="2.834"/>
<line fill="none" stroke="#E1EFE6" stroke-miterlimit="10" x1="233.5" y1="2.834" x2="267.5" y2="14.834"/>
<line fill="none" stroke="#E1EFE6" stroke-miterlimit="10" x1="243.5" y1="121.834" x2="199.5" y2="100.834"/>
<line fill="none" stroke="#E1EFE6" stroke-miterlimit="10" x1="261.5" y1="174.834" x2="243.5" y2="121.834"/>
<line fill="none" stroke="#E1EFE6" stroke-miterlimit="10" x1="261.5" y1="174.834" x2="77.5" y2="210.834"/>
<line fill="none" stroke="#E1EFE6" stroke-miterlimit="10" x1="77.5" y1="210.834" x2="3.5" y2="237.834"/>
</svg>
