<?xml version="1.0" encoding="utf-8"?>
<!-- Generator: Adobe Illustrator 16.0.0, SVG Export Plug-In . SVG Version: 6.00 Build 0)  -->
<!DOCTYPE svg PUBLIC "-//W3C//DTD SVG 1.1//EN" "http://www.w3.org/Graphics/SVG/1.1/DTD/svg11.dtd">
<svg version="1.1" id="Layer_2" xmlns="http://www.w3.org/2000/svg" xmlns:xlink="http://www.w3.org/1999/xlink" x="0px" y="0px"
	 width="218.5px" height="175.5px" viewBox="0 0 218.5 175.5" enable-background="new 0 0 218.5 175.5" xml:space="preserve">
<circle fill="#E1EFE6" stroke="#E1EFE6" stroke-miterlimit="10" cx="11.5" cy="6.5" r="3"/>
<circle fill="#E1EFE6" stroke="#E1EFE6" stroke-miterlimit="10" cx="3.5" cy="101.5" r="3"/>
<circle fill="#E1EFE6" stroke="#E1EFE6" stroke-miterlimit="10" cx="81.5" cy="15" r="3"/>
<circle fill="#E1EFE6" stroke="#E1EFE6" stroke-miterlimit="10" cx="90" cy="104.5" r="3"/>
<circle fill="#E1EFE6" stroke="#E1EFE6" stroke-miterlimit="10" cx="98.5" cy="38.5" r="3"/>
<circle fill="#E1EFE6" stroke="#E1EFE6" stroke-miterlimit="10" cx="115" cy="3.5" r="3"/>
<circle fill="#E1EFE6" stroke="#E1EFE6" stroke-miterlimit="10" cx="195" cy="32.5" r="3"/>
<circle fill="#E1EFE6" stroke="#E1EFE6" stroke-miterlimit="10" cx="215" cy="74.5" r="3"/>
<circle fill="#E1EFE6" stroke="#E1EFE6" stroke-miterlimit="10" cx="195" cy="147" r="3"/>
<circle fill="#E1EFE6" stroke="#E1EFE6" stroke-miterlimit="10" cx="115" cy="135.5" r="3"/>
<circle fill="#E1EFE6" stroke="#E1EFE6" stroke-miterlimit="10" cx="159.5" cy="172" r="3"/>
<line fill="none" stroke="#E1EFE6" stroke-miterlimit="10" x1="11.5" y1="6.5" x2="81.5" y2="15"/>
<line fill="none" stroke="#E1EFE6" stroke-miterlimit="10" x1="81.5" y1="15" x2="115" y2="3.5"/>
<line fill="none" stroke="#E1EFE6" stroke-miterlimit="10" x1="115" y1="3.5" x2="195" y2="32.5"/>
<line fill="none" stroke="#E1EFE6" stroke-miterlimit="10" x1="98.5" y1="38.5" x2="81.5" y2="15"/>
<line fill="none" stroke="#E1EFE6" stroke-miterlimit="10" x1="215" y1="74.5" x2="98.5" y2="38.5"/>
<line fill="none" stroke="#E1EFE6" stroke-miterlimit="10" x1="81.5" y1="15" x2="90" y2="104.5"/>
<line fill="none" stroke="#E1EFE6" stroke-miterlimit="10" x1="90" y1="104.5" x2="3.5" y2="101.5"/>
<line fill="none" stroke="#E1EFE6" stroke-miterlimit="10" x1="3.5" y1="101.5" x2="11.5" y2="6.5"/>
<line fill="none" stroke="#E1EFE6" stroke-miterlimit="10" x1="90" y1="104.5" x2="115" y2="135.5"/>
<line fill="none" stroke="#E1EFE6" stroke-miterlimit="10" x1="115" y1="135.5" x2="159.5" y2="172"/>
<line fill="none" stroke="#E1EFE6" stroke-miterlimit="10" x1="159.5" y1="172" x2="195" y2="147"/>
</svg>
